<?xml version="1.0" encoding="UTF-8" standalone="no"?>
<svg
   xmlns:dc="http://purl.org/dc/elements/1.1/"
   xmlns:cc="http://creativecommons.org/ns#"
   xmlns:rdf="http://www.w3.org/1999/02/22-rdf-syntax-ns#"
   xmlns:svg="http://www.w3.org/2000/svg"
   xmlns="http://www.w3.org/2000/svg"
   xmlns:xlink="http://www.w3.org/1999/xlink"
   xmlns:sodipodi="http://sodipodi.sourceforge.net/DTD/sodipodi-0.dtd"
   xmlns:inkscape="http://www.inkscape.org/namespaces/inkscape"
   height="1200"
   width="1200"
   id="svg2"
   version="1.1"
   inkscape:version="0.48.5 r10040"
   sodipodi:docname="mitHintergrund-wenig.svg">
  <metadata
     id="metadata11372">
    <rdf:RDF>
      <cc:Work
         rdf:about="">
        <dc:format>image/svg+xml</dc:format>
        <dc:type
           rdf:resource="http://purl.org/dc/dcmitype/StillImage" />
        <dc:title></dc:title>
      </cc:Work>
    </rdf:RDF>
  </metadata>
  <defs
     id="defs11370" />
  <sodipodi:namedview
     pagecolor="#ffffff"
     bordercolor="#666666"
     borderopacity="1"
     objecttolerance="10"
     gridtolerance="10"
     guidetolerance="10"
     inkscape:pageopacity="0"
     inkscape:pageshadow="2"
     inkscape:window-width="1366"
     inkscape:window-height="702"
     id="namedview11368"
     showgrid="false"
     inkscape:zoom="0.39333333"
     inkscape:cx="336.5224"
     inkscape:cy="600"
     inkscape:window-x="0"
     inkscape:window-y="27"
     inkscape:window-maximized="1"
     inkscape:current-layer="layer2" />
  <g
     inkscape:groupmode="layer"
     id="layer1"
     inkscape:label="Hintergrund"
     style="display:inline">
    <image
       y="1.6271234"
       x="2.0000095"
       id="image88333"
       xlink:href="file:///dateien/Dokumente/Uni/Master/4.Sem/BV/bildverarbeitung/tisch2grau.png"
       height="1200"
       width="1200" />
  </g>
  <g
     inkscape:groupmode="layer"
     id="layer2"
     inkscape:label="Vordergrund"
     style="display:inline">
    <circle
       d="m 985.5,1154.5 c 0,0.5523 -0.44772,1 -1,1 -0.55228,0 -1,-0.4477 -1,-1 0,-0.5523 0.44772,-1 1,-1 0.55228,0 1,0.4477 1,1 z"
       style="fill:#000000;stroke:none"
       sodipodi:ry="1"
       sodipodi:rx="1"
       sodipodi:cy="1154.5"
       sodipodi:cx="984.5"
       cx="984.5"
       cy="1154.5"
       r="1"
       id="circle5488"
       transform="translate(4.73729,2.6356)" />
    <circle
       d="m 985,1164 c 0,0.5523 -0.44772,1 -1,1 -0.55228,0 -1,-0.4477 -1,-1 0,-0.5523 0.44772,-1 1,-1 0.55228,0 1,0.4477 1,1 z"
       style="fill:#000000;stroke:none"
       sodipodi:ry="1"
       sodipodi:rx="1"
       sodipodi:cy="1164"
       sodipodi:cx="984"
       cx="984"
       cy="1164"
       r="1"
       id="circle5594"
       transform="translate(4.73729,2.6356)" />
    <circle
       d="m 986,1171 c 0,0.5523 -0.44772,1 -1,1 -0.55228,0 -1,-0.4477 -1,-1 0,-0.5523 0.44772,-1 1,-1 0.55228,0 1,0.4477 1,1 z"
       style="fill:#000000;stroke:none"
       sodipodi:ry="1"
       sodipodi:rx="1"
       sodipodi:cy="1171"
       sodipodi:cx="985"
       cx="985"
       cy="1171"
       r="1"
       id="circle5724"
       transform="translate(4.73729,2.6356)" />
    <circle
       d="m 988,1156 c 0,0.5523 -0.44772,1 -1,1 -0.55228,0 -1,-0.4477 -1,-1 0,-0.5523 0.44772,-1 1,-1 0.55228,0 1,0.4477 1,1 z"
       style="fill:#000000;stroke:none"
       sodipodi:ry="1"
       sodipodi:rx="1"
       sodipodi:cy="1156"
       sodipodi:cx="987"
       cx="987"
       cy="1156"
       r="1"
       id="circle8654"
       transform="translate(4.73729,2.6356)" />
    <circle
       d="m 974,1170 c 0,0.5523 -0.44772,1 -1,1 -0.55228,0 -1,-0.4477 -1,-1 0,-0.5523 0.44772,-1 1,-1 0.55228,0 1,0.4477 1,1 z"
       style="fill:#000000;stroke:none"
       sodipodi:ry="1"
       sodipodi:rx="1"
       sodipodi:cy="1170"
       sodipodi:cx="973"
       cx="973"
       cy="1170"
       r="1"
       id="circle8818"
       transform="translate(4.73729,2.6356)" />
    <circle
       d="m 980,1171 c 0,0.5523 -0.44772,1 -1,1 -0.55228,0 -1,-0.4477 -1,-1 0,-0.5523 0.44772,-1 1,-1 0.55228,0 1,0.4477 1,1 z"
       style="fill:#000000;stroke:none"
       sodipodi:ry="1"
       sodipodi:rx="1"
       sodipodi:cy="1171"
       sodipodi:cx="979"
       cx="979"
       cy="1171"
       r="1"
       id="circle8820"
       transform="translate(4.73729,2.6356)" />
    <circle
       d="m 984,1156 c 0,0.5523 -0.44772,1 -1,1 -0.55228,0 -1,-0.4477 -1,-1 0,-0.5523 0.44772,-1 1,-1 0.55228,0 1,0.4477 1,1 z"
       style="fill:#000000;stroke:none"
       sodipodi:ry="1"
       sodipodi:rx="1"
       sodipodi:cy="1156"
       sodipodi:cx="983"
       cx="983"
       cy="1156"
       r="1"
       id="circle9776"
       transform="translate(4.73729,2.6356)" />
    <circle
       d="m 988,1163 c 0,0.5523 -0.44772,1 -1,1 -0.55228,0 -1,-0.4477 -1,-1 0,-0.5523 0.44772,-1 1,-1 0.55228,0 1,0.4477 1,1 z"
       style="fill:#000000;stroke:none"
       sodipodi:ry="1"
       sodipodi:rx="1"
       sodipodi:cy="1163"
       sodipodi:cx="987"
       cx="987"
       cy="1163"
       r="1"
       id="circle9818"
       transform="translate(4.73729,2.6356)" />
    <circle
       d="m 970,1165 c 0,0.5523 -0.44772,1 -1,1 -0.55228,0 -1,-0.4477 -1,-1 0,-0.5523 0.44772,-1 1,-1 0.55228,0 1,0.4477 1,1 z"
       style="fill:#000000;stroke:none"
       sodipodi:ry="1"
       sodipodi:rx="1"
       sodipodi:cy="1165"
       sodipodi:cx="969"
       cx="969"
       cy="1165"
       r="1"
       id="circle9822"
       transform="translate(4.73729,2.6356)" />
    <circle
       d="m 979,1164 c 0,0.5523 -0.44772,1 -1,1 -0.55228,0 -1,-0.4477 -1,-1 0,-0.5523 0.44772,-1 1,-1 0.55228,0 1,0.4477 1,1 z"
       style="fill:#000000;stroke:none"
       sodipodi:ry="1"
       sodipodi:rx="1"
       sodipodi:cy="1164"
       sodipodi:cx="978"
       cx="978"
       cy="1164"
       r="1"
       id="circle10768"
       transform="translate(4.73729,2.6356)" />
    <circle
       d="m 965,1172 c 0,0.5523 -0.44772,1 -1,1 -0.55228,0 -1,-0.4477 -1,-1 0,-0.5523 0.44772,-1 1,-1 0.55228,0 1,0.4477 1,1 z"
       style="fill:#000000;stroke:none"
       sodipodi:ry="1"
       sodipodi:rx="1"
       sodipodi:cy="1172"
       sodipodi:cx="964"
       cx="964"
       cy="1172"
       r="1"
       id="circle11016"
       transform="translate(4.73729,2.6356)" />
  </g>
</svg>
